# xmcd
#
# Track frame offsets: 
#        150
#        26043
#        50405
#        69963
#        74459
#        79926
#        82387
#        88170
#        92517
#        94988
#        98300
#        107581
#        111409
#        116015
#        122649
#        129637
#        171132
#        196596
#        221199
#        252461
#        272379
#        276126
#
# Disc length: 4031 seconds
#
# Revision: 0
# Processed by: cddbd v1.5.2PL0 Copyright (c) Steve Scherf et al.
# Submitted via: ExactAudioCopy v0.95b4
#
DISCID=3b0fbd16
DTITLE=Sinae Lee - Karol Szymanowski Piano Works -  Disc 3
DYEAR=2006
DGENRE=Classical
TTITLE0=Metops, Op.29: The Isle of Sirens (Lento, molto rubato e impro
TTITLE0=visando)
TTITLE1=Metops, Op.29: Calypso (Lento, mesto)
TTITLE2=Metops, Op.29: Nausicaa (Allegretto grazioso)
TTITLE3=Twelve Studies, Op.33 no.1 Presto
TTITLE4=Twelve Studies, Op.33 no.2 Andantino soave
TTITLE5=Twelve Studies, Op.33 no.3 Vivace assai, agitato
TTITLE6=Twelve Studies, Op.33 no.4 Presto - delicatamente, sempre pp v
TTITLE6=elocissimo
TTITLE7=Twelve Studies, Op.33 no.5 Andante espressivo
TTITLE8=Twelve Studies, Op.33 no.6 Vivace agitato e marcato, vigoroso
TTITLE9=Twelve Studies, Op.33 no.7 Allegro molto con brio, burlesco
TTITLE10=Twelve Studies, Op.33 no.8 Lento assai mesto espressivo
TTITLE11=Twelve Studies, Op.33 no.9 Animato capriccioso e fantastico
TTITLE12=Twelve Studies, Op.33 no.10 Presto molto agitato, tempestoso
TTITLE13=Twelve Studies, Op.33 no.11 Andante soave rubato
TTITLE14=Twelve Studies, Op.33 no.12 Presto emergico
TTITLE15=Masque, Op.34: Scheherazade (Lento assai, languido)
TTITLE16=Masque, Op.34: Tantris the Clown (Vivace assai buffo e capric
TTITLE16=cioso)
TTITLE17=Masque, Op.34: Don Juan's Serenade (Vivace quasi improvisando
TTITLE17=, fantastico)
TTITLE18=Piano Sonata no.3, Op.36: Presto
TTITLE19=Piano Sonata no.3, Op.36: Adagio, mesto
TTITLE20=Piano Sonata no.3, Op.36: Assai vivace, scherzando
TTITLE21=Piano Sonata no.3, Op.36: Fuga: allegro moderato, scherzando 
TTITLE21=e buffo
EXTD=
EXTT0=
EXTT1=
EXTT2=
EXTT3=
EXTT4=
EXTT5=
EXTT6=
EXTT7=
EXTT8=
EXTT9=
EXTT10=
EXTT11=
EXTT12=
EXTT13=
EXTT14=
EXTT15=
EXTT16=
EXTT17=
EXTT18=
EXTT19=
EXTT20=
EXTT21=
PLAYORDER=
